<svg width="55" height="24" viewBox="0 0 55 24" fill="none" xmlns="http://www.w3.org/2000/svg">
<g id="logo 16" clip-path="url(#clip0_92_63)">
<g id="b">
<g id="c">
<path id="Vector" d="M54.5967 17.7716C54.5967 19.3748 54.6045 20.9772 54.5952 22.5804C54.5866 23.9912 53.8856 24.373 52.6374 23.6262C46.9011 20.1909 41.1749 16.7396 35.4339 13.3119C35.0756 13.0982 34.6046 12.8837 34.2199 12.9324C33.5096 13.0214 33.414 13.6267 33.4163 14.2397C33.4257 16.9442 33.4498 19.6501 33.3977 22.3538C33.3876 22.8618 33.1894 23.5988 32.8272 23.8003C32.4775 23.9958 31.7236 23.7653 31.2845 23.503C25.6625 20.1407 20.0707 16.7312 14.4501 13.3651C14.0328 13.1149 13.2991 12.8677 13.0007 13.0563C12.6292 13.2906 12.3961 13.9758 12.3852 14.4724C12.3277 17.1092 12.3619 19.7482 12.3564 22.3857C12.3533 23.6893 12.1202 23.9387 10.8285 23.9441C7.72057 23.957 4.61265 23.9578 1.50472 23.9479C0.256575 23.9441 0.00710113 23.687 0.0047696 22.4686C0.000106548 19.4296 -0.0014478 16.3913 0.00710113 13.3522C0.0102098 12.2114 0.286884 11.9391 1.46819 11.9346C4.50773 11.9231 7.54804 11.9338 10.5876 11.927C11.9072 11.9239 12.1528 11.6859 12.1559 10.412C12.1621 7.43983 12.1295 4.46769 12.1839 1.4963C12.1932 0.997395 12.4264 0.311398 12.7986 0.0710709C13.0955 -0.120582 13.8362 0.116703 14.2527 0.366156C19.8733 3.73073 25.4658 7.14018 31.0879 10.5025C31.527 10.7649 32.2731 11.0014 32.6252 10.8097C32.985 10.6135 33.1855 9.87733 33.1956 9.37234C33.2492 6.70212 33.1972 4.02962 33.243 1.35865C33.2508 0.912216 33.4451 0.224698 33.7552 0.0885631C34.1407 -0.0802743 34.8184 0.0756341 35.2279 0.319003C41.3272 3.9414 47.3969 7.61247 53.4931 11.241C54.2788 11.7087 54.6643 12.2274 54.6169 13.1643C54.54 14.6968 54.5959 16.2353 54.5967 17.7716Z" fill="#F2F2F2"/>
</g>
</g>
</g>
<defs>
<clipPath id="clip0_92_63">
<rect width="54.6207" height="24" fill="white"/>
</clipPath>
</defs>
</svg>
